<svg xmlns="http://www.w3.org/2000/svg" xmlns:xlink="http://www.w3.org/1999/xlink" contentStyleType="text/css" data-diagram-type="CLASS" height="430px" preserveAspectRatio="none" style="width:931px;height:430px;background:#FFFFFF;" version="1.1" viewBox="0 0 931 430" width="931px" zoomAndPan="magnify"><defs/><g><!--cluster mod__mtef_archex_module_2--><a href="../examples/docs/architecture_modeling_example.html#mod__mtef_archex_module_2" target="_top" title="../examples/docs/architecture_modeling_example.html#mod__mtef_archex_module_2" xlink:actuate="onRequest" xlink:href="../examples/docs/architecture_modeling_example.html#mod__mtef_archex_module_2" xlink:show="new" xlink:title="../examples/docs/architecture_modeling_example.html#mod__mtef_archex_module_2" xlink:type="simple"><path d="M8.5,326.5 L81.9473,326.5 A3.75,3.75 0 0 1 84.4473,329 L91.4473,348.7969 L171.5,348.7969 A2.5,2.5 0 0 1 174,351.2969 L174,421 A2.5,2.5 0 0 1 171.5,423.5 L8.5,423.5 A2.5,2.5 0 0 1 6,421 L6,329 A2.5,2.5 0 0 1 8.5,326.5 " fill="transparent" style="stroke:#000000;stroke-width:1.5;"/><line style="stroke:#000000;stroke-width:1.5;" x1="6" x2="91.4473" y1="348.7969" y2="348.7969"/><text fill="#000000" font-family="sans-serif" font-size="14" font-weight="bold" lengthAdjust="spacing" textLength="72.4473" x="10" y="341.4951">Module 2</text></a><!--entity comp__mod_temp_component_example_3--><a href="../examples/docs/architecture_modeling_example.html#comp__mod_temp_component_example_3" target="_top" title="../examples/docs/architecture_modeling_example.html#comp__mod_temp_component_example_3" xlink:actuate="onRequest" xlink:href="../examples/docs/architecture_modeling_example.html#comp__mod_temp_component_example_3" xlink:show="new" xlink:title="../examples/docs/architecture_modeling_example.html#comp__mod_temp_component_example_3" xlink:type="simple"><rect fill="#F1F1F1" height="46.2969" rx="2.5" ry="2.5" style="stroke:#181818;stroke-width:0.5;" width="134.6367" x="22.5" y="361.5"/><rect fill="#F1F1F1" height="10" style="stroke:#181818;stroke-width:0.5;" width="15" x="137.1367" y="366.5"/><rect fill="#F1F1F1" height="2" style="stroke:#181818;stroke-width:0.5;" width="4" x="135.1367" y="368.5"/><rect fill="#F1F1F1" height="2" style="stroke:#181818;stroke-width:0.5;" width="4" x="135.1367" y="372.5"/><text fill="#000000" font-family="sans-serif" font-size="14" lengthAdjust="spacing" textLength="94.6367" x="37.5" y="394.4951">Component 3</text></a><!--entity Feature_User--><g id="elem_Feature_User"><ellipse cx="367.1685" cy="14" fill="#F1F1F1" rx="8" ry="8" style="stroke:#181818;stroke-width:0.5;"/><path d="M367.1685,22 L367.1685,49 M354.1685,30 L380.1685,30 M367.1685,49 L354.1685,64 M367.1685,49 L380.1685,64 " fill="transparent" style="stroke:#181818;stroke-width:0.5;"/><text fill="#000000" font-family="sans-serif" font-size="14" lengthAdjust="spacing" textLength="90.3369" x="322" y="78.4951">Feature User</text></g><!--class logic_arc_int__example_feature__if_3--><a href="../examples/docs/architecture_modeling_example.html#logic_arc_int__example_feature__if_3" target="_top" title="../examples/docs/architecture_modeling_example.html#logic_arc_int__example_feature__if_3" xlink:actuate="onRequest" xlink:href="../examples/docs/architecture_modeling_example.html#logic_arc_int__example_feature__if_3" xlink:show="new" xlink:title="../examples/docs/architecture_modeling_example.html#logic_arc_int__example_feature__if_3" xlink:type="simple"><g id="elem_logic_arc_int__example_feature__if_3"><rect codeLine="14" fill="#F1F1F1" height="105.1875" id="logic_arc_int__example_feature__if_3" rx="2.5" ry="2.5" style="stroke:#181818;stroke-width:0.5;" width="178.1611" x="7" y="158.5"/><ellipse cx="29.3652" cy="174.5" fill="#B4A7E5" rx="11" ry="11" style="stroke:#181818;stroke-width:1;"/><path d="M25.2871,170.2656 L25.2871,168.1094 L32.6777,168.1094 L32.6777,170.2656 L30.209,170.2656 L30.209,178.3438 L32.6777,178.3438 L32.6777,180.5 L25.2871,180.5 L25.2871,178.3438 L27.7559,178.3438 L27.7559,170.2656 L25.2871,170.2656 Z " fill="#000000"/><text fill="#000000" font-family="sans-serif" font-size="14" font-style="italic" lengthAdjust="spacing" textLength="129.7939" x="45.002" y="179.3467">Logical Interface 3</text><line style="stroke:#181818;stroke-width:0.5;" x1="8" x2="184.1611" y1="190.5" y2="190.5"/></g><a href="../examples/docs/architecture_modeling_example.html#logic_arc_int_op__example_feature__op_5" target="_top" title="../examples/docs/architecture_modeling_example.html#logic_arc_int_op__example_feature__op_5" xlink:actuate="onRequest" xlink:href="../examples/docs/architecture_modeling_example.html#logic_arc_int_op__example_feature__op_5" xlink:show="new" xlink:title="../examples/docs/architecture_modeling_example.html#logic_arc_int_op__example_feature__op_5" xlink:type="simple"><rect fill="#F1F1F1" height="10" style="stroke:transparent;stroke-width:1;" width="20" x="13" y="199.1484"/><ellipse cx="18" cy="204.1484" fill="#84BE84" rx="3" ry="3" style="stroke:#038048;stroke-width:1;"/></a></a><a href="../examples/docs/architecture_modeling_example.html#logic_arc_int_op__example_feature__op_5" target="_top" title="../examples/docs/architecture_modeling_example.html#logic_arc_int_op__example_feature__op_5" xlink:actuate="onRequest" xlink:href="../examples/docs/architecture_modeling_example.html#logic_arc_int_op__example_feature__op_5" xlink:show="new" xlink:title="../examples/docs/architecture_modeling_example.html#logic_arc_int_op__example_feature__op_5" xlink:type="simple"><text fill="#000000" font-family="sans-serif" font-size="14" lengthAdjust="spacing" textLength="152.1611" x="27" y="207.4951">Logical Operation 5 ()</text></a><a href="../examples/docs/architecture_modeling_example.html#logic_arc_int_op__example_feature__op_6" target="_top" title="../examples/docs/architecture_modeling_example.html#logic_arc_int_op__example_feature__op_6" xlink:actuate="onRequest" xlink:href="../examples/docs/architecture_modeling_example.html#logic_arc_int_op__example_feature__op_6" xlink:show="new" xlink:title="../examples/docs/architecture_modeling_example.html#logic_arc_int_op__example_feature__op_6" xlink:type="simple"><rect fill="#F1F1F1" height="10" style="stroke:transparent;stroke-width:1;" width="20" x="13" y="215.4453"/><ellipse cx="18" cy="220.4453" fill="#84BE84" rx="3" ry="3" style="stroke:#038048;stroke-width:1;"/></a><a href="../examples/docs/architecture_modeling_example.html#logic_arc_int_op__example_feature__op_6" target="_top" title="../examples/docs/architecture_modeling_example.html#logic_arc_int_op__example_feature__op_6" xlink:actuate="onRequest" xlink:href="../examples/docs/architecture_modeling_example.html#logic_arc_int_op__example_feature__op_6" xlink:show="new" xlink:title="../examples/docs/architecture_modeling_example.html#logic_arc_int_op__example_feature__op_6" xlink:type="simple"><text fill="#000000" font-family="sans-serif" font-size="14" lengthAdjust="spacing" textLength="152.1611" x="27" y="223.792">Logical Operation 6 ()</text></a><a href="../examples/docs/architecture_modeling_example.html#logic_arc_int_op__example_feature__op_7" target="_top" title="../examples/docs/architecture_modeling_example.html#logic_arc_int_op__example_feature__op_7" xlink:actuate="onRequest" xlink:href="../examples/docs/architecture_modeling_example.html#logic_arc_int_op__example_feature__op_7" xlink:show="new" xlink:title="../examples/docs/architecture_modeling_example.html#logic_arc_int_op__example_feature__op_7" xlink:type="simple"><rect fill="#F1F1F1" height="10" style="stroke:transparent;stroke-width:1;" width="20" x="13" y="231.7422"/><ellipse cx="18" cy="236.7422" fill="#84BE84" rx="3" ry="3" style="stroke:#038048;stroke-width:1;"/></a><a href="../examples/docs/architecture_modeling_example.html#logic_arc_int_op__example_feature__op_7" target="_top" title="../examples/docs/architecture_modeling_example.html#logic_arc_int_op__example_feature__op_7" xlink:actuate="onRequest" xlink:href="../examples/docs/architecture_modeling_example.html#logic_arc_int_op__example_feature__op_7" xlink:show="new" xlink:title="../examples/docs/architecture_modeling_example.html#logic_arc_int_op__example_feature__op_7" xlink:type="simple"><text fill="#000000" font-family="sans-serif" font-size="14" lengthAdjust="spacing" textLength="152.1611" x="27" y="240.0889">Logical Operation 7 ()</text></a><a href="../examples/docs/architecture_modeling_example.html#logic_arc_int_op__example_feature__op_8" target="_top" title="../examples/docs/architecture_modeling_example.html#logic_arc_int_op__example_feature__op_8" xlink:actuate="onRequest" xlink:href="../examples/docs/architecture_modeling_example.html#logic_arc_int_op__example_feature__op_8" xlink:show="new" xlink:title="../examples/docs/architecture_modeling_example.html#logic_arc_int_op__example_feature__op_8" xlink:type="simple"><rect fill="#F1F1F1" height="10" style="stroke:transparent;stroke-width:1;" width="20" x="13" y="248.0391"/><ellipse cx="18" cy="253.0391" fill="#84BE84" rx="3" ry="3" style="stroke:#038048;stroke-width:1;"/></a><a href="../examples/docs/architecture_modeling_example.html#logic_arc_int_op__example_feature__op_8" target="_top" title="../examples/docs/architecture_modeling_example.html#logic_arc_int_op__example_feature__op_8" xlink:actuate="onRequest" xlink:href="../examples/docs/architecture_modeling_example.html#logic_arc_int_op__example_feature__op_8" xlink:show="new" xlink:title="../examples/docs/architecture_modeling_example.html#logic_arc_int_op__example_feature__op_8" xlink:type="simple"><text fill="#000000" font-family="sans-serif" font-size="14" lengthAdjust="spacing" textLength="152.1611" x="27" y="256.3857">Logical Operation 8 ()</text></a><!--class comp__mod_temp_archex_sub_component_2--><g id="elem_comp__mod_temp_archex_sub_component_2"><rect fill="#F1F1F1" height="40" id="comp__mod_temp_archex_sub_component_2" rx="2.5" ry="2.5" style="stroke:#181818;stroke-width:0.5;" width="348.4697" x="576" y="364.5"/><ellipse cx="591" cy="380.5" fill="#ADD1B2" rx="11" ry="11" style="stroke:#181818;stroke-width:1;"/><path d="M593.9688,386.1406 Q593.3906,386.4375 592.75,386.5781 Q592.1094,386.7344 591.4063,386.7344 Q588.9063,386.7344 587.5781,385.0938 Q586.2656,383.4375 586.2656,380.3125 Q586.2656,377.1875 587.5781,375.5313 Q588.9063,373.875 591.4063,373.875 Q592.1094,373.875 592.75,374.0313 Q593.4063,374.1875 593.9688,374.4844 L593.9688,377.2031 Q593.3438,376.625 592.75,376.3594 Q592.1563,376.0781 591.5313,376.0781 Q590.1875,376.0781 589.5,377.1563 Q588.8125,378.2188 588.8125,380.3125 Q588.8125,382.4063 589.5,383.4844 Q590.1875,384.5469 591.5313,384.5469 Q592.1563,384.5469 592.75,384.2813 Q593.3438,384 593.9688,383.4219 L593.9688,386.1406 Z " fill="#000000"/><text fill="#000000" font-family="sans-serif" font-size="14" lengthAdjust="spacing" textLength="316.4697" x="605" y="385.3467">comp__mod_temp_archex_sub_component_2</text><line style="stroke:#181818;stroke-width:0.5;" x1="577" x2="923.4697" y1="396.5" y2="396.5"/></g><!--class logic_arc_int__example_feature__if_2--><g id="elem_logic_arc_int__example_feature__if_2"><rect fill="#F1F1F1" height="40" id="logic_arc_int__example_feature__if_2" rx="2.5" ry="2.5" style="stroke:#181818;stroke-width:0.5;" width="290.2959" x="576" y="191"/><ellipse cx="591" cy="207" fill="#ADD1B2" rx="11" ry="11" style="stroke:#181818;stroke-width:1;"/><path d="M593.9688,212.6406 Q593.3906,212.9375 592.75,213.0781 Q592.1094,213.2344 591.4063,213.2344 Q588.9063,213.2344 587.5781,211.5938 Q586.2656,209.9375 586.2656,206.8125 Q586.2656,203.6875 587.5781,202.0313 Q588.9063,200.375 591.4063,200.375 Q592.1094,200.375 592.75,200.5313 Q593.4063,200.6875 593.9688,200.9844 L593.9688,203.7031 Q593.3438,203.125 592.75,202.8594 Q592.1563,202.5781 591.5313,202.5781 Q590.1875,202.5781 589.5,203.6563 Q588.8125,204.7188 588.8125,206.8125 Q588.8125,208.9063 589.5,209.9844 Q590.1875,211.0469 591.5313,211.0469 Q592.1563,211.0469 592.75,210.7813 Q593.3438,210.5 593.9688,209.9219 L593.9688,212.6406 Z " fill="#000000"/><text fill="#000000" font-family="sans-serif" font-size="14" lengthAdjust="spacing" textLength="258.2959" x="605" y="211.8467">logic_arc_int__example_feature__if_2</text><line style="stroke:#181818;stroke-width:0.5;" x1="577" x2="865.2959" y1="223" y2="223"/></g><!--class comp__mod_temp_archex_sub_component_1--><g id="elem_comp__mod_temp_archex_sub_component_1"><rect fill="#F1F1F1" height="40" id="comp__mod_temp_archex_sub_component_1" rx="2.5" ry="2.5" style="stroke:#181818;stroke-width:0.5;" width="348.4697" x="193" y="364.5"/><ellipse cx="208" cy="380.5" fill="#ADD1B2" rx="11" ry="11" style="stroke:#181818;stroke-width:1;"/><path d="M210.9688,386.1406 Q210.3906,386.4375 209.75,386.5781 Q209.1094,386.7344 208.4063,386.7344 Q205.9063,386.7344 204.5781,385.0938 Q203.2656,383.4375 203.2656,380.3125 Q203.2656,377.1875 204.5781,375.5313 Q205.9063,373.875 208.4063,373.875 Q209.1094,373.875 209.75,374.0313 Q210.4063,374.1875 210.9688,374.4844 L210.9688,377.2031 Q210.3438,376.625 209.75,376.3594 Q209.1563,376.0781 208.5313,376.0781 Q207.1875,376.0781 206.5,377.1563 Q205.8125,378.2188 205.8125,380.3125 Q205.8125,382.4063 206.5,383.4844 Q207.1875,384.5469 208.5313,384.5469 Q209.1563,384.5469 209.75,384.2813 Q210.3438,384 210.9688,383.4219 L210.9688,386.1406 Z " fill="#000000"/><text fill="#000000" font-family="sans-serif" font-size="14" lengthAdjust="spacing" textLength="316.4697" x="222" y="385.3467">comp__mod_temp_archex_sub_component_1</text><line style="stroke:#181818;stroke-width:0.5;" x1="194" x2="540.4697" y1="396.5" y2="396.5"/></g><!--class logic_arc_int__example_feature__if_1--><g id="elem_logic_arc_int__example_feature__if_1"><rect fill="#F1F1F1" height="40" id="logic_arc_int__example_feature__if_1" rx="2.5" ry="2.5" style="stroke:#181818;stroke-width:0.5;" width="290.2959" x="222" y="191"/><ellipse cx="237" cy="207" fill="#ADD1B2" rx="11" ry="11" style="stroke:#181818;stroke-width:1;"/><path d="M239.9688,212.6406 Q239.3906,212.9375 238.75,213.0781 Q238.1094,213.2344 237.4063,213.2344 Q234.9063,213.2344 233.5781,211.5938 Q232.2656,209.9375 232.2656,206.8125 Q232.2656,203.6875 233.5781,202.0313 Q234.9063,200.375 237.4063,200.375 Q238.1094,200.375 238.75,200.5313 Q239.4063,200.6875 239.9688,200.9844 L239.9688,203.7031 Q239.3438,203.125 238.75,202.8594 Q238.1563,202.5781 237.5313,202.5781 Q236.1875,202.5781 235.5,203.6563 Q234.8125,204.7188 234.8125,206.8125 Q234.8125,208.9063 235.5,209.9844 Q236.1875,211.0469 237.5313,211.0469 Q238.1563,211.0469 238.75,210.7813 Q239.3438,210.5 239.9688,209.9219 L239.9688,212.6406 Z " fill="#000000"/><text fill="#000000" font-family="sans-serif" font-size="14" lengthAdjust="spacing" textLength="258.2959" x="251" y="211.8467">logic_arc_int__example_feature__if_1</text><line style="stroke:#181818;stroke-width:0.5;" x1="223" x2="511.2959" y1="223" y2="223"/></g><!--reverse link logic_arc_int__example_feature__if_2 to comp__mod_temp_archex_sub_component_2--><g id="link_logic_arc_int__example_feature__if_2_comp__mod_temp_archex_sub_component_2"><path codeLine="30" d="M725.2115,236.9258 C730.7915,269.8858 741.19,331.38 746.77,364.41 " fill="transparent" id="logic_arc_int__example_feature__if_2-backto-comp__mod_temp_archex_sub_component_2" style="stroke:#181818;stroke-width:1;"/><polygon fill="#181818" points="724.21,231.01,721.7684,240.5514,725.0446,235.9399,729.6562,239.216,724.21,231.01" style="stroke:#181818;stroke-width:1;"/><text fill="#000000" font-family="sans-serif" font-size="13" lengthAdjust="spacing" textLength="76.9082" x="738" y="306.5669">implements</text></g><!--reverse link logic_arc_int__example_feature__if_1 to comp__mod_temp_archex_sub_component_1--><g id="link_logic_arc_int__example_feature__if_1_comp__mod_temp_archex_sub_component_1"><path codeLine="31" d="M367,237.01 C367,269.97 367,331.38 367,364.41 " fill="transparent" id="logic_arc_int__example_feature__if_1-backto-comp__mod_temp_archex_sub_component_1" style="stroke:#181818;stroke-width:1;"/><polygon fill="#181818" points="367,231.01,363,240.01,367,236.01,371,240.01,367,231.01" style="stroke:#181818;stroke-width:1;"/><text fill="#000000" font-family="sans-serif" font-size="13" lengthAdjust="spacing" textLength="76.9082" x="368" y="306.5669">implements</text></g><!--reverse link logic_arc_int__example_feature__if_3 to comp__mod_temp_component_example_3--><g id="link_logic_arc_int__example_feature__if_3_comp__mod_temp_component_example_3"><path codeLine="32" d="M93.9717,269.9164 C92.8417,302.4464 91.64,336.73 90.78,361.25 " fill="transparent" id="logic_arc_int__example_feature__if_3-backto-comp__mod_temp_component_example_3" style="stroke:#181818;stroke-width:1;"/><polygon fill="#181818" points="94.18,263.92,89.87,272.7757,94.0064,268.917,97.8651,273.0534,94.18,263.92" style="stroke:#181818;stroke-width:1;"/><text fill="#000000" font-family="sans-serif" font-size="13" lengthAdjust="spacing" textLength="76.9082" x="94" y="306.5669">implements</text></g><!--link Feature_User to logic_arc_int__example_feature__if_3--><g id="link_Feature_User_logic_arc_int__example_feature__if_3"><path codeLine="33" d="M321.95,72.01 C283.49,95.5 232.2707,126.7829 185.4707,155.3629 " fill="transparent" id="Feature_User-to-logic_arc_int__example_feature__if_3" style="stroke:#181818;stroke-width:1;"/><polygon fill="#181818" points="180.35,158.49,190.1157,157.2131,184.6172,155.8841,185.9463,150.3856,180.35,158.49" style="stroke:#181818;stroke-width:1;"/><text fill="#000000" font-family="sans-serif" font-size="13" lengthAdjust="spacing" textLength="23.0103" x="257" y="124.5669">use</text></g><!--link Feature_User to logic_arc_int__example_feature__if_1--><g id="link_Feature_User_logic_arc_int__example_feature__if_1"><path codeLine="34" d="M367,81.64 C367,115.57 367,158.37 367,184.96 " fill="transparent" id="Feature_User-to-logic_arc_int__example_feature__if_1" style="stroke:#181818;stroke-width:1;"/><polygon fill="#181818" points="367,190.96,371,181.96,367,185.96,363,181.96,367,190.96" style="stroke:#181818;stroke-width:1;"/><text fill="#000000" font-family="sans-serif" font-size="13" lengthAdjust="spacing" textLength="23.0103" x="368" y="124.5669">use</text></g><!--link Feature_User to logic_arc_int__example_feature__if_2--><g id="link_Feature_User_logic_arc_int__example_feature__if_2"><path codeLine="35" d="M412.19,65.63 C481.63,98.09 608.0449,157.1885 674.7449,188.3785 " fill="transparent" id="Feature_User-to-logic_arc_int__example_feature__if_2" style="stroke:#181818;stroke-width:1;"/><polygon fill="#181818" points="680.18,190.92,673.7217,183.4843,675.6507,188.802,670.333,190.7311,680.18,190.92" style="stroke:#181818;stroke-width:1;"/><text fill="#000000" font-family="sans-serif" font-size="13" lengthAdjust="spacing" textLength="23.0103" x="545" y="124.5669">use</text></g><!--SRC=[jLHDQ-Cm4BthLmpfeIqbTkFG3qhffR2mqDBBzbICKEH9B2fPHXhJXDB_lfBjX7P9jYQxkKblvhqtCumajBPltAYbgXQCR0raOMQ9h852EPIaRCLALI1uGeUMLZLsTpGrhK0GEJLh23sxzRJIUCSIuPMUmJjxK1NUMsqTE2pQswzIoTSAlOSiEMSVx3RjEKn82dcZ7oYeSGZF7jq8X8SUu140fgfGn5n8XD63NIWfDFpSGDEMe2FEXPCy97EEIs5gZNpUwt0rvrE0bvSaIVkOJmihVHeefQBGSKmpja0THhBc9oKPVJH4Eyz3v-mCrlKzrUX4d29SmCbfCFuFphRUOXx0YppFjrfV7jpwSfVrrS6jhtPPNn_S-ZfQimz8Zs7BFi9n2epLGhwAHTZOHriq6Y5hrpIuScu8vz6Zn6Ki8qHvjkzkxXGC2nasKbfJsmehWj7zvjYzc1ZYCPrJUDDyaxdfUE_tyhroLrmxm4zbTODhqVNGEeZzeTYtwflP9_4CnituRiX7aDs0Yg09D0-3n2U3nIT_5TysvQ7Aqw_ANxx8SJ5Oe_6u9tdoB-Ii9_y6]--></g></svg>