<svg xmlns="http://www.w3.org/2000/svg" xmlns:xlink="http://www.w3.org/1999/xlink" contentStyleType="text/css" data-diagram-type="CLASS" height="430px" preserveAspectRatio="none" style="width:916px;height:430px;background:#FFFFFF;" version="1.1" viewBox="0 0 916 430" width="916px" zoomAndPan="magnify"><defs/><g><!--cluster mod__mtef_archex_module_2--><a href="../examples/docs/architecture_modeling_example.html#mod__mtef_archex_module_2" target="_top" title="../examples/docs/architecture_modeling_example.html#mod__mtef_archex_module_2" xlink:actuate="onRequest" xlink:href="../examples/docs/architecture_modeling_example.html#mod__mtef_archex_module_2" xlink:show="new" xlink:title="../examples/docs/architecture_modeling_example.html#mod__mtef_archex_module_2" xlink:type="simple"><path d="M376.5,326.5 L449.9473,326.5 A3.75,3.75 0 0 1 452.4473,329 L459.4473,348.7969 L539.5,348.7969 A2.5,2.5 0 0 1 542,351.2969 L542,421 A2.5,2.5 0 0 1 539.5,423.5 L376.5,423.5 A2.5,2.5 0 0 1 374,421 L374,329 A2.5,2.5 0 0 1 376.5,326.5 " fill="transparent" style="stroke:#000000;stroke-width:1.5;"/><line style="stroke:#000000;stroke-width:1.5;" x1="374" x2="459.4473" y1="348.7969" y2="348.7969"/><text fill="#000000" font-family="sans-serif" font-size="14" font-weight="bold" lengthAdjust="spacing" textLength="72.4473" x="378" y="341.4951">Module 2</text></a><!--entity comp__mod_temp_component_example_3--><a href="../examples/docs/architecture_modeling_example.html#comp__mod_temp_component_example_3" target="_top" title="../examples/docs/architecture_modeling_example.html#comp__mod_temp_component_example_3" xlink:actuate="onRequest" xlink:href="../examples/docs/architecture_modeling_example.html#comp__mod_temp_component_example_3" xlink:show="new" xlink:title="../examples/docs/architecture_modeling_example.html#comp__mod_temp_component_example_3" xlink:type="simple"><rect fill="#F1F1F1" height="46.2969" rx="2.5" ry="2.5" style="stroke:#181818;stroke-width:0.5;" width="134.6367" x="390.5" y="361.5"/><rect fill="#F1F1F1" height="10" style="stroke:#181818;stroke-width:0.5;" width="15" x="505.1367" y="366.5"/><rect fill="#F1F1F1" height="2" style="stroke:#181818;stroke-width:0.5;" width="4" x="503.1367" y="368.5"/><rect fill="#F1F1F1" height="2" style="stroke:#181818;stroke-width:0.5;" width="4" x="503.1367" y="372.5"/><text fill="#000000" font-family="sans-serif" font-size="14" lengthAdjust="spacing" textLength="94.6367" x="405.5" y="394.4951">Component 3</text></a><!--entity Feature_User--><g id="elem_Feature_User"><ellipse cx="458.1685" cy="14" fill="#F1F1F1" rx="8" ry="8" style="stroke:#181818;stroke-width:0.5;"/><path d="M458.1685,22 L458.1685,49 M445.1685,30 L471.1685,30 M458.1685,49 L445.1685,64 M458.1685,49 L471.1685,64 " fill="transparent" style="stroke:#181818;stroke-width:0.5;"/><text fill="#000000" font-family="sans-serif" font-size="14" lengthAdjust="spacing" textLength="90.3369" x="413" y="78.4951">Feature User</text></g><!--class logic_arc_int__example_feature__if_3--><a href="../examples/docs/architecture_modeling_example.html#logic_arc_int__example_feature__if_3" target="_top" title="../examples/docs/architecture_modeling_example.html#logic_arc_int__example_feature__if_3" xlink:actuate="onRequest" xlink:href="../examples/docs/architecture_modeling_example.html#logic_arc_int__example_feature__if_3" xlink:show="new" xlink:title="../examples/docs/architecture_modeling_example.html#logic_arc_int__example_feature__if_3" xlink:type="simple"><g id="elem_logic_arc_int__example_feature__if_3"><rect codeLine="14" fill="#F1F1F1" height="105.1875" id="logic_arc_int__example_feature__if_3" rx="2.5" ry="2.5" style="stroke:#181818;stroke-width:0.5;" width="178.1611" x="369" y="158.5"/><ellipse cx="391.3652" cy="174.5" fill="#B4A7E5" rx="11" ry="11" style="stroke:#181818;stroke-width:1;"/><path d="M387.2871,170.2656 L387.2871,168.1094 L394.6777,168.1094 L394.6777,170.2656 L392.209,170.2656 L392.209,178.3438 L394.6777,178.3438 L394.6777,180.5 L387.2871,180.5 L387.2871,178.3438 L389.7559,178.3438 L389.7559,170.2656 L387.2871,170.2656 Z " fill="#000000"/><text fill="#000000" font-family="sans-serif" font-size="14" font-style="italic" lengthAdjust="spacing" textLength="129.7939" x="407.002" y="179.3467">Logical Interface 3</text><line style="stroke:#181818;stroke-width:0.5;" x1="370" x2="546.1611" y1="190.5" y2="190.5"/></g><a href="../examples/docs/architecture_modeling_example.html#logic_arc_int_op__example_feature__op_5" target="_top" title="../examples/docs/architecture_modeling_example.html#logic_arc_int_op__example_feature__op_5" xlink:actuate="onRequest" xlink:href="../examples/docs/architecture_modeling_example.html#logic_arc_int_op__example_feature__op_5" xlink:show="new" xlink:title="../examples/docs/architecture_modeling_example.html#logic_arc_int_op__example_feature__op_5" xlink:type="simple"><rect fill="#F1F1F1" height="10" style="stroke:transparent;stroke-width:1;" width="20" x="375" y="199.1484"/><ellipse cx="380" cy="204.1484" fill="#84BE84" rx="3" ry="3" style="stroke:#038048;stroke-width:1;"/></a></a><a href="../examples/docs/architecture_modeling_example.html#logic_arc_int_op__example_feature__op_5" target="_top" title="../examples/docs/architecture_modeling_example.html#logic_arc_int_op__example_feature__op_5" xlink:actuate="onRequest" xlink:href="../examples/docs/architecture_modeling_example.html#logic_arc_int_op__example_feature__op_5" xlink:show="new" xlink:title="../examples/docs/architecture_modeling_example.html#logic_arc_int_op__example_feature__op_5" xlink:type="simple"><text fill="#000000" font-family="sans-serif" font-size="14" lengthAdjust="spacing" textLength="152.1611" x="389" y="207.4951">Logical Operation 5 ()</text></a><a href="../examples/docs/architecture_modeling_example.html#logic_arc_int_op__example_feature__op_6" target="_top" title="../examples/docs/architecture_modeling_example.html#logic_arc_int_op__example_feature__op_6" xlink:actuate="onRequest" xlink:href="../examples/docs/architecture_modeling_example.html#logic_arc_int_op__example_feature__op_6" xlink:show="new" xlink:title="../examples/docs/architecture_modeling_example.html#logic_arc_int_op__example_feature__op_6" xlink:type="simple"><rect fill="#F1F1F1" height="10" style="stroke:transparent;stroke-width:1;" width="20" x="375" y="215.4453"/><ellipse cx="380" cy="220.4453" fill="#84BE84" rx="3" ry="3" style="stroke:#038048;stroke-width:1;"/></a><a href="../examples/docs/architecture_modeling_example.html#logic_arc_int_op__example_feature__op_6" target="_top" title="../examples/docs/architecture_modeling_example.html#logic_arc_int_op__example_feature__op_6" xlink:actuate="onRequest" xlink:href="../examples/docs/architecture_modeling_example.html#logic_arc_int_op__example_feature__op_6" xlink:show="new" xlink:title="../examples/docs/architecture_modeling_example.html#logic_arc_int_op__example_feature__op_6" xlink:type="simple"><text fill="#000000" font-family="sans-serif" font-size="14" lengthAdjust="spacing" textLength="152.1611" x="389" y="223.792">Logical Operation 6 ()</text></a><a href="../examples/docs/architecture_modeling_example.html#logic_arc_int_op__example_feature__op_7" target="_top" title="../examples/docs/architecture_modeling_example.html#logic_arc_int_op__example_feature__op_7" xlink:actuate="onRequest" xlink:href="../examples/docs/architecture_modeling_example.html#logic_arc_int_op__example_feature__op_7" xlink:show="new" xlink:title="../examples/docs/architecture_modeling_example.html#logic_arc_int_op__example_feature__op_7" xlink:type="simple"><rect fill="#F1F1F1" height="10" style="stroke:transparent;stroke-width:1;" width="20" x="375" y="231.7422"/><ellipse cx="380" cy="236.7422" fill="#84BE84" rx="3" ry="3" style="stroke:#038048;stroke-width:1;"/></a><a href="../examples/docs/architecture_modeling_example.html#logic_arc_int_op__example_feature__op_7" target="_top" title="../examples/docs/architecture_modeling_example.html#logic_arc_int_op__example_feature__op_7" xlink:actuate="onRequest" xlink:href="../examples/docs/architecture_modeling_example.html#logic_arc_int_op__example_feature__op_7" xlink:show="new" xlink:title="../examples/docs/architecture_modeling_example.html#logic_arc_int_op__example_feature__op_7" xlink:type="simple"><text fill="#000000" font-family="sans-serif" font-size="14" lengthAdjust="spacing" textLength="152.1611" x="389" y="240.0889">Logical Operation 7 ()</text></a><a href="../examples/docs/architecture_modeling_example.html#logic_arc_int_op__example_feature__op_8" target="_top" title="../examples/docs/architecture_modeling_example.html#logic_arc_int_op__example_feature__op_8" xlink:actuate="onRequest" xlink:href="../examples/docs/architecture_modeling_example.html#logic_arc_int_op__example_feature__op_8" xlink:show="new" xlink:title="../examples/docs/architecture_modeling_example.html#logic_arc_int_op__example_feature__op_8" xlink:type="simple"><rect fill="#F1F1F1" height="10" style="stroke:transparent;stroke-width:1;" width="20" x="375" y="248.0391"/><ellipse cx="380" cy="253.0391" fill="#84BE84" rx="3" ry="3" style="stroke:#038048;stroke-width:1;"/></a><a href="../examples/docs/architecture_modeling_example.html#logic_arc_int_op__example_feature__op_8" target="_top" title="../examples/docs/architecture_modeling_example.html#logic_arc_int_op__example_feature__op_8" xlink:actuate="onRequest" xlink:href="../examples/docs/architecture_modeling_example.html#logic_arc_int_op__example_feature__op_8" xlink:show="new" xlink:title="../examples/docs/architecture_modeling_example.html#logic_arc_int_op__example_feature__op_8" xlink:type="simple"><text fill="#000000" font-family="sans-serif" font-size="14" lengthAdjust="spacing" textLength="152.1611" x="389" y="256.3857">Logical Operation 8 ()</text></a><!--class comp__mod_temp_archex_sub_component_2--><g id="elem_comp__mod_temp_archex_sub_component_2"><rect fill="#F1F1F1" height="40" id="comp__mod_temp_archex_sub_component_2" rx="2.5" ry="2.5" style="stroke:#181818;stroke-width:0.5;" width="348.4697" x="561" y="364.5"/><ellipse cx="576" cy="380.5" fill="#ADD1B2" rx="11" ry="11" style="stroke:#181818;stroke-width:1;"/><path d="M578.9688,386.1406 Q578.3906,386.4375 577.75,386.5781 Q577.1094,386.7344 576.4063,386.7344 Q573.9063,386.7344 572.5781,385.0938 Q571.2656,383.4375 571.2656,380.3125 Q571.2656,377.1875 572.5781,375.5313 Q573.9063,373.875 576.4063,373.875 Q577.1094,373.875 577.75,374.0313 Q578.4063,374.1875 578.9688,374.4844 L578.9688,377.2031 Q578.3438,376.625 577.75,376.3594 Q577.1563,376.0781 576.5313,376.0781 Q575.1875,376.0781 574.5,377.1563 Q573.8125,378.2188 573.8125,380.3125 Q573.8125,382.4063 574.5,383.4844 Q575.1875,384.5469 576.5313,384.5469 Q577.1563,384.5469 577.75,384.2813 Q578.3438,384 578.9688,383.4219 L578.9688,386.1406 Z " fill="#000000"/><text fill="#000000" font-family="sans-serif" font-size="14" lengthAdjust="spacing" textLength="316.4697" x="590" y="385.3467">comp__mod_temp_archex_sub_component_2</text><line style="stroke:#181818;stroke-width:0.5;" x1="562" x2="908.4697" y1="396.5" y2="396.5"/></g><!--class logic_arc_int__example_feature__if_2--><g id="elem_logic_arc_int__example_feature__if_2"><rect fill="#F1F1F1" height="40" id="logic_arc_int__example_feature__if_2" rx="2.5" ry="2.5" style="stroke:#181818;stroke-width:0.5;" width="290.2959" x="586" y="191"/><ellipse cx="601" cy="207" fill="#ADD1B2" rx="11" ry="11" style="stroke:#181818;stroke-width:1;"/><path d="M603.9688,212.6406 Q603.3906,212.9375 602.75,213.0781 Q602.1094,213.2344 601.4063,213.2344 Q598.9063,213.2344 597.5781,211.5938 Q596.2656,209.9375 596.2656,206.8125 Q596.2656,203.6875 597.5781,202.0313 Q598.9063,200.375 601.4063,200.375 Q602.1094,200.375 602.75,200.5313 Q603.4063,200.6875 603.9688,200.9844 L603.9688,203.7031 Q603.3438,203.125 602.75,202.8594 Q602.1563,202.5781 601.5313,202.5781 Q600.1875,202.5781 599.5,203.6563 Q598.8125,204.7188 598.8125,206.8125 Q598.8125,208.9063 599.5,209.9844 Q600.1875,211.0469 601.5313,211.0469 Q602.1563,211.0469 602.75,210.7813 Q603.3438,210.5 603.9688,209.9219 L603.9688,212.6406 Z " fill="#000000"/><text fill="#000000" font-family="sans-serif" font-size="14" lengthAdjust="spacing" textLength="258.2959" x="615" y="211.8467">logic_arc_int__example_feature__if_2</text><line style="stroke:#181818;stroke-width:0.5;" x1="587" x2="875.2959" y1="223" y2="223"/></g><!--class logic_arc_int__example_feature__if_1--><g id="elem_logic_arc_int__example_feature__if_1"><rect fill="#F1F1F1" height="40" id="logic_arc_int__example_feature__if_1" rx="2.5" ry="2.5" style="stroke:#181818;stroke-width:0.5;" width="290.2959" x="40" y="191"/><ellipse cx="55" cy="207" fill="#ADD1B2" rx="11" ry="11" style="stroke:#181818;stroke-width:1;"/><path d="M57.9688,212.6406 Q57.3906,212.9375 56.75,213.0781 Q56.1094,213.2344 55.4063,213.2344 Q52.9063,213.2344 51.5781,211.5938 Q50.2656,209.9375 50.2656,206.8125 Q50.2656,203.6875 51.5781,202.0313 Q52.9063,200.375 55.4063,200.375 Q56.1094,200.375 56.75,200.5313 Q57.4063,200.6875 57.9688,200.9844 L57.9688,203.7031 Q57.3438,203.125 56.75,202.8594 Q56.1563,202.5781 55.5313,202.5781 Q54.1875,202.5781 53.5,203.6563 Q52.8125,204.7188 52.8125,206.8125 Q52.8125,208.9063 53.5,209.9844 Q54.1875,211.0469 55.5313,211.0469 Q56.1563,211.0469 56.75,210.7813 Q57.3438,210.5 57.9688,209.9219 L57.9688,212.6406 Z " fill="#000000"/><text fill="#000000" font-family="sans-serif" font-size="14" lengthAdjust="spacing" textLength="258.2959" x="69" y="211.8467">logic_arc_int__example_feature__if_1</text><line style="stroke:#181818;stroke-width:0.5;" x1="41" x2="329.2959" y1="223" y2="223"/></g><!--class comp__mod_temp_archex_sub_component_1--><g id="elem_comp__mod_temp_archex_sub_component_1"><rect fill="#F1F1F1" height="40" id="comp__mod_temp_archex_sub_component_1" rx="2.5" ry="2.5" style="stroke:#181818;stroke-width:0.5;" width="348.4697" x="7" y="364.5"/><ellipse cx="22" cy="380.5" fill="#ADD1B2" rx="11" ry="11" style="stroke:#181818;stroke-width:1;"/><path d="M24.9688,386.1406 Q24.3906,386.4375 23.75,386.5781 Q23.1094,386.7344 22.4063,386.7344 Q19.9063,386.7344 18.5781,385.0938 Q17.2656,383.4375 17.2656,380.3125 Q17.2656,377.1875 18.5781,375.5313 Q19.9063,373.875 22.4063,373.875 Q23.1094,373.875 23.75,374.0313 Q24.4063,374.1875 24.9688,374.4844 L24.9688,377.2031 Q24.3438,376.625 23.75,376.3594 Q23.1563,376.0781 22.5313,376.0781 Q21.1875,376.0781 20.5,377.1563 Q19.8125,378.2188 19.8125,380.3125 Q19.8125,382.4063 20.5,383.4844 Q21.1875,384.5469 22.5313,384.5469 Q23.1563,384.5469 23.75,384.2813 Q24.3438,384 24.9688,383.4219 L24.9688,386.1406 Z " fill="#000000"/><text fill="#000000" font-family="sans-serif" font-size="14" lengthAdjust="spacing" textLength="316.4697" x="36" y="385.3467">comp__mod_temp_archex_sub_component_1</text><line style="stroke:#181818;stroke-width:0.5;" x1="8" x2="354.4697" y1="396.5" y2="396.5"/></g><!--reverse link logic_arc_int__example_feature__if_2 to comp__mod_temp_archex_sub_component_2--><g id="link_logic_arc_int__example_feature__if_2_comp__mod_temp_archex_sub_component_2"><path codeLine="30" d="M731.5801,237.0084 C732.3501,269.9684 733.78,331.38 734.55,364.41 " fill="transparent" id="logic_arc_int__example_feature__if_2-backto-comp__mod_temp_archex_sub_component_2" style="stroke:#181818;stroke-width:1;"/><polygon fill="#181818" points="731.44,231.01,727.6513,240.101,731.5568,236.0086,735.6491,239.9141,731.44,231.01" style="stroke:#181818;stroke-width:1;"/><text fill="#000000" font-family="sans-serif" font-size="13" lengthAdjust="spacing" textLength="76.9082" x="734" y="306.5669">implements</text></g><!--reverse link logic_arc_int__example_feature__if_3 to comp__mod_temp_component_example_3--><g id="link_logic_arc_int__example_feature__if_3_comp__mod_temp_component_example_3"><path codeLine="31" d="M458,269.92 C458,302.45 458,336.73 458,361.25 " fill="transparent" id="logic_arc_int__example_feature__if_3-backto-comp__mod_temp_component_example_3" style="stroke:#181818;stroke-width:1;"/><polygon fill="#181818" points="458,263.92,454,272.92,458,268.92,462,272.92,458,263.92" style="stroke:#181818;stroke-width:1;"/><text fill="#000000" font-family="sans-serif" font-size="13" lengthAdjust="spacing" textLength="76.9082" x="459" y="306.5669">implements</text></g><!--link Feature_User to logic_arc_int__example_feature__if_1--><g id="link_Feature_User_logic_arc_int__example_feature__if_1"><path codeLine="32" d="M412.92,71.83 C357.49,105.43 269.9708,158.4895 221.6408,187.7895 " fill="transparent" id="Feature_User-to-logic_arc_int__example_feature__if_1" style="stroke:#181818;stroke-width:1;"/><polygon fill="#181818" points="216.51,190.9,226.2798,189.6547,220.7856,188.3079,222.1325,182.8137,216.51,190.9" style="stroke:#181818;stroke-width:1;"/><text fill="#000000" font-family="sans-serif" font-size="13" lengthAdjust="spacing" textLength="23.0103" x="347" y="124.5669">use</text></g><!--link Feature_User to logic_arc_int__example_feature__if_3--><g id="link_Feature_User_logic_arc_int__example_feature__if_3"><path codeLine="33" d="M458,81.64 C458,104.23 458,127.41 458,152.24 " fill="transparent" id="Feature_User-to-logic_arc_int__example_feature__if_3" style="stroke:#181818;stroke-width:1;"/><polygon fill="#181818" points="458,158.24,462,149.24,458,153.24,454,149.24,458,158.24" style="stroke:#181818;stroke-width:1;"/><text fill="#000000" font-family="sans-serif" font-size="13" lengthAdjust="spacing" textLength="23.0103" x="459" y="124.5669">use</text></g><!--reverse link logic_arc_int__example_feature__if_1 to comp__mod_temp_archex_sub_component_1--><g id="link_logic_arc_int__example_feature__if_1_comp__mod_temp_archex_sub_component_1"><path codeLine="34" d="M184.4199,237.0084 C183.6499,269.9684 182.22,331.38 181.45,364.41 " fill="transparent" id="logic_arc_int__example_feature__if_1-backto-comp__mod_temp_archex_sub_component_1" style="stroke:#181818;stroke-width:1;"/><polygon fill="#181818" points="184.56,231.01,180.3509,239.9141,184.4432,236.0086,188.3487,240.101,184.56,231.01" style="stroke:#181818;stroke-width:1;"/><text fill="#000000" font-family="sans-serif" font-size="13" lengthAdjust="spacing" textLength="76.9082" x="184" y="306.5669">implements</text></g><!--link Feature_User to logic_arc_int__example_feature__if_2--><g id="link_Feature_User_logic_arc_int__example_feature__if_2"><path codeLine="35" d="M503.08,71.83 C558.51,105.43 646.0292,158.4895 694.3592,187.7895 " fill="transparent" id="Feature_User-to-logic_arc_int__example_feature__if_2" style="stroke:#181818;stroke-width:1;"/><polygon fill="#181818" points="699.49,190.9,693.8675,182.8137,695.2144,188.3079,689.7202,189.6547,699.49,190.9" style="stroke:#181818;stroke-width:1;"/><text fill="#000000" font-family="sans-serif" font-size="13" lengthAdjust="spacing" textLength="23.0103" x="595" y="124.5669">use</text></g><!--SRC=[jLHDQ-im4BphLonvXxOyOZSE_Q2KNWeF7hJqqfwA4OgyYKKboqXhcb3wtolPJcXBGareRjPePsPtM5beRL-vKKjLBHZP6iZ2p19P0uLoA4dPYfMgGF243YsjQkpEQ6fQWI1oQjOGUdRjQQNnXYN2Aps3DtQdAhorsZfmMBIdnrB9bmgzXomvPU_iEkqvJ4WATQD_AAXn24yUtGY4XnxW4G2cgj34N4Y4qPrTA2aq_Dz0qvQW8yw5apmKSuvBOMgDVDxhS3NdKu3dvoH9-pkV5bRwD51AHM7YM6PiWJf4ikOd9HdzPuXsdeV9sLzOz_TGenCnHJY3uvDW_0lEjjvY7i2pFC-tMfyVtFfyb_N5mQqlTbbV7jpwCbgpTqYFOCi-mb4AZDL2leX5sDXxMpGQ8MlNDBXoRWZdqQF4PMmZtF9itztSAHWMCcoajAQs5LO4ezlDP_TYuXMFvPp2c-QRoit4Ux-NdvMxvje0FxNL1TUYwz0wY7rJx4VrpUoJU0RZPdmpv4UGNO6Ae0aq3sn044ELfr-Ll_p5niKmZSaLD1xt94zxyf309eF7clp2M5dVsGS0]--></g></svg>